<?xml version="1.0" encoding="UTF-8" standalone="no"?>
<!-- Created with Inkscape (http://www.inkscape.org/) -->

<svg
   version="1.1"
   id="svg1"
   width="647.27271"
   height="386.03635"
   viewBox="0 0 647.27271 386.03635"
   sodipodi:docname="player_head.svg"
   inkscape:version="1.4.4 (dcaf3e7, 2026-05-05)"
   xmlns:inkscape="http://www.inkscape.org/namespaces/inkscape"
   xmlns:sodipodi="http://sodipodi.sourceforge.net/DTD/sodipodi-0.dtd"
   xmlns="http://www.w3.org/2000/svg"
   xmlns:svg="http://www.w3.org/2000/svg">
  <defs
     id="defs1">
    <inkscape:path-effect
       effect="spiro"
       id="path-effect5"
       is_visible="true"
       lpeversion="1" />
    <inkscape:path-effect
       effect="spiro"
       id="path-effect4"
       is_visible="true"
       lpeversion="1" />
    <inkscape:path-effect
       effect="spiro"
       id="path-effect3"
       is_visible="true"
       lpeversion="1" />
    <inkscape:path-effect
       effect="spiro"
       id="path-effect1"
       is_visible="true"
       lpeversion="1" />
  </defs>
  <sodipodi:namedview
     id="namedview1"
     pagecolor="#ffffff"
     bordercolor="#000000"
     borderopacity="0.25"
     inkscape:showpageshadow="2"
     inkscape:pageopacity="0.0"
     inkscape:pagecheckerboard="0"
     inkscape:deskcolor="#d1d1d1"
     inkscape:zoom="1.1074087"
     inkscape:cx="299.34748"
     inkscape:cy="335.46784"
     inkscape:window-width="1920"
     inkscape:window-height="1057"
     inkscape:window-x="-8"
     inkscape:window-y="-8"
     inkscape:window-maximized="1"
     inkscape:current-layer="g1" />
  <g
     inkscape:groupmode="layer"
     inkscape:label="Image"
     id="g1">
    <g
       id="g6"
       transform="translate(-15.351152,-344.94942)">
      <path
         style="fill:#ffffff;stroke-width:0.903009"
         d="m 263.82905,684.10226 c -10.26401,-0.71536 -10.08353,-0.37999 -10.08353,-18.73643 0,-14.60552 -0.0151,-14.71615 -2.20981,-16.15416 -1.76205,-1.15454 -9.3097,-1.8898 -37.24912,-3.62869 -85.22038,-5.30392 -82.45564,-5.05945 -84.48999,-7.47082 -2.64617,-3.13657 -5.95188,-19.66169 -8.427,-42.12625 -1.91225,-17.35591 -2.19425,-58.82788 -0.50349,-74.04673 2.90475,-26.14622 8.06691,-46.14613 16.02128,-62.07166 11.0343,-22.0919 27.11791,-38.27904 48.68095,-48.99437 20.72097,-10.29688 45.29729,-15.94984 87.05881,-20.025 19.84003,-1.93602 85.13948,-2.23343 103.47609,-0.47129 60.61085,5.82469 88.00383,14.55824 112.90934,35.99822 33.86965,29.15682 48.14225,86.52492 40.54895,162.98479 -2.06607,20.80401 -6.82444,44.51943 -9.86545,49.16883 -1.54885,2.36804 0.14766,2.14785 -51.32548,6.66133 -22.75787,1.99555 -42.09311,4.01101 -42.96719,4.47879 -3.62421,1.93963 -4.07961,3.6516 -5.02437,18.88818 l -0.93137,15.02079 -4.96655,0.58795 c -2.7316,0.32337 -15.21269,0.62814 -27.73576,0.67725 -20.82578,0.0817 -22.83876,-0.0456 -23.5842,-1.49096 -0.44824,-0.86914 -1.03309,-5.73383 -1.29964,-10.81041 -0.88167,-16.79158 -3.17583,-18.6533 -22.37149,-18.1545 -16.66379,0.433 -18.08467,1.80687 -19.68035,19.02909 -0.49081,5.29734 -1.15445,10.05555 -1.47474,10.57381 -0.61991,1.00303 -40.54521,1.08524 -54.50589,0.11224 z m -29.43832,-82.30895 c 17.34541,-3.12445 32.95361,-16.95249 39.33885,-34.85212 2.69288,-7.54891 3.36987,-25.59761 1.26459,-33.7144 -7.21769,-27.82751 -32.78342,-44.37515 -60.84539,-39.38272 -19.67201,3.4998 -34.66265,16.59501 -41.16257,35.95792 -6.89605,20.54299 -2.07592,42.47713 12.5698,57.19917 12.89174,12.95892 30.09071,18.16854 48.83472,14.79215 z m 200.44413,-2.21488 c 17.67275,-4.51187 30.97435,-18.03863 35.14751,-35.74244 1.75269,-7.43548 1.76572,-20.65374 0.0269,-27.3294 -4.24597,-16.30139 -15.61696,-28.98704 -31.13332,-34.73281 -7.19988,-2.66614 -20.51966,-3.6064 -28.27656,-1.99607 -12.0978,2.51149 -25.95127,12.08921 -31.66396,21.89118 -6.52974,11.20385 -9.43477,29.11209 -6.5459,40.35257 4.73799,18.43535 17.7882,32.19637 35.319,37.24272 6.89413,1.98452 19.9897,2.13623 27.1263,0.31425 z"
         id="path2" />
      <g
         id="g5">
        <path
           style="fill:#ffffff"
           d="m 197.75897,479.49777 c 1.24899,9.49756 3.36773,18.88057 6.32106,27.99328 6.205,19.14596 16.38555,37.39927 31.60531,50.5685 2.91532,2.52255 5.99664,4.84489 9.03009,7.22407 1.51657,1.18947 3.02168,2.39356 4.51505,3.61204"
           id="path1"
           inkscape:path-effect="#path-effect1"
           inkscape:original-d="m 197.75897,479.49777 c 2.10702,9.33109 3.19191,18.95352 6.32106,27.99328 4.49511,12.98586 21.77762,40.29409 31.60531,50.5685 2.66447,2.78558 5.92163,4.94453 9.03009,7.22407 4.77316,3.50031 4.51505,0.84475 4.51505,3.61204" />
        <path
           style="fill:#ffffff"
           d="m 178.79578,480.40078 c -2.95803,0.48322 -5.78621,1.74019 -8.12708,3.61203 -2.17706,1.74086 -3.90957,3.97701 -5.41806,6.32107 -5.07378,7.88419 -7.79253,17.25541 -7.77588,26.63109 0.0166,9.37569 2.76216,18.72392 7.77588,26.64644 3.50875,5.54442 8.05421,10.34226 12.17592,15.4475 4.12172,5.10523 7.90645,10.69495 9.4963,17.06082 0.81572,3.26617 1.03191,6.65682 1.80602,9.9331 1.68187,7.11823 6.02257,13.49739 11.73911,18.06018 0.83883,0.66953 1.70787,1.30327 2.50343,2.02367 0.79557,0.72041 1.52209,1.53625 2.01162,2.49137 0.30739,0.59974 0.52017,1.2514 0.90301,1.80602 0.55166,0.7992 1.42987,1.3402 2.36755,1.59278 0.93768,0.25259 1.93256,0.23341 2.88958,0.0686 1.91403,-0.32964 3.68721,-1.22163 5.57898,-1.66137 2.07204,-0.48164 4.23627,-0.4085 6.34612,-0.13672 2.10985,0.27178 4.19017,0.73838 6.296,1.03973 12.02914,1.72139 24.07733,-1.99064 36.12036,-3.61204 6.38308,-0.85938 12.87066,-1.13799 19.11453,-2.71799 3.12193,-0.78999 6.17656,-1.90902 8.95842,-3.53131 2.78186,-1.62229 5.28901,-3.7607 7.1444,-6.39282 2.54619,-3.61211 3.78125,-8.05021 3.93382,-12.4669 0.15258,-4.41669 -0.73399,-8.82191 -2.13587,-13.01299 -2.80377,-8.38217 -7.62377,-15.94823 -10.82804,-24.18561 -2.10989,-5.424 -3.52476,-11.15003 -6.32106,-16.25416 -1.16637,-2.129 -2.56414,-4.13131 -3.61204,-6.32106 -2.68562,-5.61204 -2.90555,-12.05043 -4.51504,-18.06018 -0.66636,-2.48813 -1.57505,-4.9113 -2.70903,-7.22407"
           id="path3"
           inkscape:path-effect="#path-effect3"
           inkscape:original-d="m 178.79578,480.40078 c -2.70903,1.20401 -5.73647,1.85891 -8.12708,3.61203 -2.23787,1.6411 -4.63174,3.65969 -5.41806,6.32107 -7.37269,24.95374 -9.90501,31.98174 0,53.27753 5.68337,12.21923 14.36073,21.54108 21.67222,32.50832 1.66763,2.50145 1.08305,7.04124 1.80602,9.9331 1.36454,5.45816 8.41689,13.40907 11.73911,18.06018 1.2185,1.7059 3.25772,2.83861 4.51505,4.51504 0.40384,0.53845 0.42708,1.33009 0.90301,1.80602 0.80464,0.80464 10.78581,0 10.83611,0 14.39405,0 -1.76972,-0.29798 12.64212,0.90301 11.9263,0.99386 24.67777,-0.56068 36.12036,-3.61204 11.43481,-3.04928 29.21151,-0.63045 35.21735,-12.64212 8.28026,-16.56053 -2.66445,-34.54711 -9.03009,-49.6655 -2.2559,-5.35777 -3.86269,-10.98621 -6.32106,-16.25416 -1.02625,-2.19909 -2.67867,-4.08097 -3.61204,-6.32106 -1.81556,-4.35734 -3.23588,-13.36992 -4.51504,-18.06018 -0.34241,-1.25549 -2.70903,-5.54241 -2.70903,-7.22407" />
        <path
           style="fill:#ffffff"
           d="m 151.70551,521.03618 c -4.58067,1.38643 -8.79155,3.97554 -12.09609,7.43744 -3.30454,3.4619 -5.69511,7.78859 -6.8671,12.42876 -1.84966,7.3232 -0.66448,15.02581 -0.90301,22.57522 -0.0857,2.71136 -0.356,5.43783 0,8.12708 0.42284,3.19416 1.72929,6.23829 3.55882,8.89052 1.82954,2.65222 4.1718,4.92497 6.73597,6.87599 5.12835,3.90203 11.09329,6.51595 16.79548,9.51775 3.57561,1.88231 7.0778,3.93373 10.83611,5.41805 5.45433,2.15415 11.31872,3.06204 17.15717,3.61204 3.90737,0.36809 7.82753,0.58277 11.73912,0.903 6.96111,0.56988 13.89482,1.47428 20.7692,2.70903"
           id="path4"
           inkscape:path-effect="#path-effect4"
           inkscape:original-d="m 151.70551,521.03618 c -1.64491,10.09138 -15.24036,11.17959 -18.96319,19.8662 -1.18004,2.75342 -0.90301,19.39914 -0.90301,22.57522 0,2.70903 -0.92579,5.58116 0,8.12708 4.60701,12.66927 15.62858,19.55341 27.09027,25.28426 4.47266,2.23633 4.61828,3.69087 10.83611,5.41805 5.6312,1.56422 11.42624,2.46585 17.15717,3.61204 3.93608,0.78721 7.94125,0.14343 11.73912,0.903 6.91433,1.38287 13.63255,2.70903 20.7692,2.70903" />
        <path
           style="fill:#ffffff"
           d="m 370.23368,479.49777 c -11.27413,17.27814 -21.24478,35.4066 -29.79929,54.18054 -4.59068,10.07482 -8.85405,20.77163 -8.25228,31.82668 0.30088,5.52753 1.87238,11.0492 4.98061,15.62991 3.10824,4.58072 7.81768,8.15883 13.20476,9.43297 2.65574,0.62813 5.40579,0.69789 8.12708,0.90301 7.60361,0.57313 15.07855,2.21804 22.57523,3.61204 9.99013,1.85766 20.10201,3.28526 29.7993,6.32106 3.27972,1.02674 6.52843,2.24105 9.93309,2.70903 2.0939,0.28781 4.22717,0.28781 6.32107,0 3.01922,0.19699 6.03164,0.49824 9.03009,0.90301 8.41974,1.13662 17.07145,3.07875 25.28425,0.90301 5.99877,-1.5892 11.30152,-5.32649 15.35686,-10.02382 4.05535,-4.69734 6.92516,-10.32358 9.02438,-16.16345 2.28745,-6.36353 3.69232,-13.37244 1.80602,-19.86619 -0.53118,-1.82863 -1.31364,-3.5786 -1.80602,-5.41806 -1.01748,-3.8011 -0.75782,-7.80687 -0.90301,-11.73911 -0.2415,-6.54052 -1.64988,-13.07866 -4.51504,-18.96319 -2.27612,-4.67475 -5.43914,-8.88192 -9.03009,-12.64213 -2.50607,-2.62419 -5.22718,-5.04295 -8.12708,-7.22407"
           id="path5"
           inkscape:path-effect="#path-effect5"
           inkscape:original-d="m 370.23368,479.49777 c -19.29656,11.07413 -25.83426,33.85976 -29.79929,54.18054 -2.4735,12.67663 -8.08855,50.88235 9.93309,56.88956 2.58583,0.86194 5.42878,0.51754 8.12708,0.90301 7.54256,1.07751 15.05657,2.30444 22.57523,3.61204 10.00765,1.74046 19.94351,3.85711 29.7993,6.32106 4.77022,1.19256 5.24752,2.31856 9.93309,2.70903 2.09975,0.17498 4.21405,0 6.32107,0 3.01003,0.301 6.02167,0.58633 9.03009,0.90301 1.04134,0.10961 23.38893,2.16655 25.28425,0.90301 7.11554,-4.7437 21.02212,-18.34933 24.38124,-26.18727 2.4267,-5.66229 2.656,-13.91632 1.80602,-19.86619 -0.26923,-1.88458 -1.46547,-3.54505 -1.80602,-5.41806 -0.69135,-3.80245 -0.47519,-7.88876 -0.90301,-11.73911 -0.43106,-3.8796 -2.72654,-15.38618 -4.51504,-18.96319 -1.13273,-2.26545 -8.06329,-11.52659 -9.03009,-12.64213 -5.1977,-5.99734 -4.01711,-5.16909 -8.12708,-7.22407" />
      </g>
    </g>
  </g>
</svg>
