<?xml version="1.0" encoding="UTF-8" standalone="no"?>
<!-- Created with Inkscape (http://www.inkscape.org/) -->

<svg
   version="1.1"
   id="svg1"
   width="714"
   height="136"
   viewBox="0 0 714 136"
   sodipodi:docname="player_tuck.svg"
   inkscape:version="1.4.4 (dcaf3e7, 2026-05-05)"
   xmlns:inkscape="http://www.inkscape.org/namespaces/inkscape"
   xmlns:sodipodi="http://sodipodi.sourceforge.net/DTD/sodipodi-0.dtd"
   xmlns="http://www.w3.org/2000/svg"
   xmlns:svg="http://www.w3.org/2000/svg">
  <defs
     id="defs1" />
  <sodipodi:namedview
     id="namedview1"
     pagecolor="#ffffff"
     bordercolor="#000000"
     borderopacity="0.25"
     inkscape:showpageshadow="2"
     inkscape:pageopacity="0.0"
     inkscape:pagecheckerboard="0"
     inkscape:deskcolor="#d1d1d1"
     inkscape:zoom="1.7588539"
     inkscape:cx="371.54878"
     inkscape:cy="99.780889"
     inkscape:window-width="1920"
     inkscape:window-height="1057"
     inkscape:window-x="-8"
     inkscape:window-y="-8"
     inkscape:window-maximized="1"
     inkscape:current-layer="g1" />
  <g
     inkscape:groupmode="layer"
     inkscape:label="Image"
     id="g1">
    <path
       style="fill:#333333;fill-opacity:1"
       d="M 317.47987,125.93338 C 231.88971,120.50799 191.61324,99.546547 167.09962,47.669667 c -12.73647,-26.95352 -12.59208,-27.21517 14.88025,-26.96374 21.95615,0.20094 84.71494,2.6581 100.31321,3.92751 11.3525,0.92388 11.05686,0.31972 10.20167,20.84726 -0.58856,14.12759 -0.46746,17.31377 0.69475,18.27832 1.30827,1.08577 23.3227,3.21415 48.91074,4.72875 12.61642,0.74678 13.2674,0.37845 14.26018,-8.06858 1.54483,-13.14406 5.22649,-15.91918 21.11945,-15.91918 16.24812,0 20.06374,2.8396 21.43011,15.94841 0.9916,9.51335 -0.63812,8.95883 23.97439,8.15728 22.98419,-0.74852 34.53314,-1.71128 35.81044,-2.98527 0.43178,-0.43067 0.93495,-8.63557 1.11814,-18.23311 0.31704,-16.6092 0.43751,-17.51847 2.5,-18.86913 2.68089,-1.75564 94.18446,-10.12347 97.87903,-8.95087 7.74019,2.45665 -13.71575,45.04604 -33.04484,65.59298 -23.10447,24.560203 -48.70898,35.357883 -94.66727,39.922173 -14.11297,1.40162 -96.67484,2.01251 -115,0.85091 z m 77,-4.91793 c 71.29156,-2.28351 97.91703,-10.08977 125.09583,-36.676573 14.50244,-14.18655 31.04553,-41.02791 34.97285,-56.74387 0.72594,-2.90499 0.72594,-2.90499 -4.67137,-2.31417 -2.96852,0.32495 -22.6205,2.06225 -43.67106,3.86066 -21.05057,1.79841 -38.7569,3.56843 -39.34741,3.93338 -0.68082,0.42078 -1.15224,6.76287 -1.28847,17.33384 -0.30599,23.74551 -0.11338,23.64896 -47.80309,23.96192 -23.77284,0.15601 -23.35493,0.35067 -24.68363,-11.49736 -1.31974,-11.7681 -1.72836,-12.18207 -13.10365,-13.27552 -11.87457,-1.14144 -16.45276,1.78264 -17.50148,11.17817 -1.52973,13.70484 -2.9294,14.40817 -26.10035,13.11542 -53.13883,-2.96472 -51.08153,-1.85045 -49.95229,-27.05516 0.70609,-15.75994 0.70609,-15.75994 -1.61989,-16.27253 -3.23097,-0.71204 -78.26987,-4.0682 -106.82599,-4.77786 -11.5,-0.28579 -11.5,-0.28579 -11.37858,2.72485 0.27372,6.7872 11.04292,27.8886 20.46772,40.10489 28.28714,36.665403 65.86907,49.481543 153.41086,52.316003 12.65,0.40958 23.45,0.80502 24,0.87874 0.55,0.0737 14.05,-0.28395 30,-0.79483 z"
       id="path19" />
    <path
       style="fill:#ffffff;stroke-width:0.568552"
       d="m 349.65952,121.01013 c -1.87622,-0.0884 -9.93544,-0.43481 -17.90939,-0.76982 -81.78896,-3.43615 -118.44696,-16.92854 -145.64065,-53.604651 -8.88243,-11.979735 -19.23945,-32.727232 -19.23945,-38.541057 0,-2.723111 -1.80284,-2.706485 52.87535,-0.487599 35.25733,1.430772 61.75886,2.795766 64.24638,3.309089 l 1.98993,0.410641 v 15.891273 c 0,14.058731 0.11467,16.100968 0.99437,17.709678 2.13942,3.912353 6.50758,5.815014 16.03109,6.982728 7.24932,0.888867 32.6987,2.362537 42.67251,2.470992 8.09133,0.08798 9.34415,-0.02677 11.33435,-1.038187 3.40795,-1.73192 4.25805,-3.353749 5.43862,-10.37596 1.43685,-8.546639 2.53522,-10.492881 6.96663,-12.344439 3.6929,-1.542994 16.67823,-0.766331 19.64066,1.174723 1.96235,1.285785 2.78301,3.75365 3.7766,11.356854 0.95071,7.275227 1.70279,8.973333 4.63251,10.459652 3.52566,1.788659 49.62842,1.202238 57.6569,-0.733388 9.22913,-2.225099 10.10314,-4.16686 10.79602,-23.985181 0.26239,-7.504887 0.64475,-14.067836 0.8497,-14.584329 0.20496,-0.516494 1.18643,-1.082553 2.18105,-1.257908 2.67274,-0.471212 22.2963,-2.334078 51.841,-4.921271 14.38436,-1.259621 27.88037,-2.448726 29.99112,-2.642455 2.87318,-0.263707 3.83773,-0.174174 3.83773,0.356234 0,1.844725 -3.71426,11.447672 -6.83796,17.679062 -14.1899,28.307085 -33.79017,49.539493 -55.99905,60.662179 -21.18944,10.61212 -45.7905,14.72073 -99.48461,16.61489 -14.98724,0.5287 -33.88146,0.62098 -42.64141,0.20825 z"
       id="path1" />
  </g>
</svg>
