<?xml version="1.0" encoding="UTF-8" standalone="no"?>
<!-- Created with Inkscape (http://www.inkscape.org/) -->

<svg
   version="1.1"
   id="svg1"
   width="647.27271"
   height="386.03635"
   viewBox="0 0 647.27271 386.03635"
   sodipodi:docname="player_head.svg"
   inkscape:version="1.4.4 (dcaf3e7, 2026-05-05)"
   xmlns:inkscape="http://www.inkscape.org/namespaces/inkscape"
   xmlns:sodipodi="http://sodipodi.sourceforge.net/DTD/sodipodi-0.dtd"
   xmlns="http://www.w3.org/2000/svg"
   xmlns:svg="http://www.w3.org/2000/svg">
  <defs
     id="defs1" />
  <sodipodi:namedview
     id="namedview1"
     pagecolor="#ffffff"
     bordercolor="#000000"
     borderopacity="0.25"
     inkscape:showpageshadow="2"
     inkscape:pageopacity="0.0"
     inkscape:pagecheckerboard="0"
     inkscape:deskcolor="#d1d1d1"
     inkscape:zoom="1.1074087"
     inkscape:cx="229.36429"
     inkscape:cy="302.05651"
     inkscape:window-width="1920"
     inkscape:window-height="1057"
     inkscape:window-x="-8"
     inkscape:window-y="-8"
     inkscape:window-maximized="1"
     inkscape:current-layer="g1" />
  <g
     inkscape:groupmode="layer"
     inkscape:label="Image"
     id="g1">
    <path
       style="fill:#333333;fill-opacity:1"
       d="m 272.001,352.24519 c -1.2,-0.0455 -4.73454,-0.22558 -7.85454,-0.40018 -3.12,-0.1746 -8.81455,-0.43464 -12.65455,-0.57787 -9.2396,-0.34463 -10.9405,-0.71595 -13.32597,-2.90915 -2.44744,-2.25018 -2.38312,-1.76335 -2.38312,-18.03669 0,-17.42328 1.29444,-15.54225 -10.99392,-15.97594 -4.60666,-0.16258 -8.49452,-0.369 -8.63969,-0.45873 -0.14518,-0.0897 -3.04372,-0.29068 -6.44122,-0.44658 -3.39749,-0.1559 -7.29871,-0.41817 -8.66939,-0.58281 -1.37068,-0.16465 -5.04487,-0.41697 -8.16487,-0.56071 -3.12,-0.14375 -7.50545,-0.39949 -9.74545,-0.56833 -4.01687,-0.30276 -8.24855,-0.56046 -21.67273,-1.31982 -3.76,-0.2127 -8.40727,-0.53032 -10.32727,-0.70585 -3.48143,-0.31826 -7.14763,-0.56316 -20.36364,-1.36031 -3.83999,-0.23162 -7.89818,-0.5477 -9.01817,-0.70241 -1.12,-0.15471 -2.64154,-0.28558 -3.3812,-0.29081 -3.26252,-0.0231 -5.42675,-1.77644 -6.8343,-5.53679 -1.07648,-2.87589 -1.32311,-3.6203 -1.59023,-4.8 -0.14491,-0.64 -0.45083,-1.81818 -0.6798,-2.61818 -0.22898,-0.8 -0.61737,-2.43637 -0.86309,-3.63637 -0.24572,-1.2 -0.71371,-3.38409 -1.03998,-4.85353 -0.32627,-1.46944 -0.59321,-2.94414 -0.59321,-3.27712 0,-0.33297 -0.18625,-1.35615 -0.41389,-2.27374 -0.40235,-1.62185 -0.66542,-3.33483 -1.48477,-9.66833 -0.21733,-1.68 -0.53283,-3.84 -0.70111,-4.8 -0.16828,-0.96 -0.30911,-2.53091 -0.31297,-3.49091 -0.004,-0.96 -0.1998,-3.10178 -0.43543,-4.75952 -0.23562,-1.65773 -0.50426,-4.865 -0.59697,-7.12727 -0.0927,-2.26227 -0.29904,-4.76776 -0.4585,-5.56776 -1.21413,-6.091 -1.37481,-41.94606 -0.24249,-54.10908 0.16385,-1.76 0.42566,-4.90182 0.58181,-6.98182 0.15614,-2.08 0.42448,-4.55184 0.59631,-5.49299 0.17182,-0.94114 0.42358,-3.16659 0.55945,-4.94545 0.13588,-1.77886 0.38479,-3.82338 0.55313,-4.54338 0.2977,-1.27319 0.5793,-2.93751 1.20592,-7.12727 0.16751,-1.12 0.48979,-2.88727 0.71619,-3.92727 0.22639,-1.04 0.49422,-2.57804 0.59518,-3.41786 0.10095,-0.83982 0.29081,-1.59324 0.42189,-1.67425 0.13109,-0.081 0.31919,-0.70298 0.418,-1.38215 0.17095,-1.17493 0.59837,-2.84291 1.47191,-5.74393 0.2168,-0.72 0.48642,-1.83272 0.59914,-2.47272 0.11273,-0.64 0.38382,-1.51714 0.60244,-1.94919 0.21862,-0.43206 0.39748,-1.04943 0.39748,-1.37195 0,-0.32252 0.18799,-1.01629 0.41774,-1.54172 0.22976,-0.52543 0.74878,-2.0026 1.15337,-3.2826 0.97856,-3.09583 1.56625,-4.75351 2.07826,-5.86214 0.23285,-0.50418 0.42336,-1.11539 0.42336,-1.35825 0,-0.24285 0.18036,-0.81216 0.40079,-1.26512 0.22044,-0.45297 0.60167,-1.28176 0.84718,-1.84176 1.32393,-3.01982 1.7609,-4.00866 2.12114,-4.8 0.2185,-0.48 0.53135,-1.2 0.69521,-1.6 0.16386,-0.4 0.44979,-0.98909 0.63541,-1.30909 0.40731,-0.70222 0.54685,-0.9641 1.70505,-3.2 0.49728,-0.96 1.15809,-2.13818 1.46846,-2.61818 0.31038,-0.48 0.76459,-1.26546 1.00935,-1.74546 0.48275,-0.9467 1.02932,-1.83026 2.19511,-3.54849 0.41274,-0.60833 1.3484,-2.02241 2.07925,-3.14241 1.09028,-1.67084 2.44345,-3.537876 4.2168,-5.818186 5.45921,-7.01982 11.74773,-13.28393 18.83099,-18.75787 1.87781,-1.45117 9.09704,-6.40576 9.3337,-6.40576 0.0578,0 0.73182,-0.42296 1.49779,-0.93991 1.88676,-1.27336 8.98651,-4.95841 12.74558,-6.61546 0.8,-0.35265 1.91272,-0.84206 2.47272,-1.08757 0.56,-0.24551 1.38879,-0.62674 1.84176,-0.84718 0.45297,-0.22043 0.95682,-0.40079 1.11967,-0.40079 0.16285,0 0.70861,-0.19051 1.21279,-0.42336 1.04584,-0.48301 3.12237,-1.24308 4.4076,-1.61332 1.2718,-0.36636 3.63673,-1.18549 4.73714,-1.64078 0.52543,-0.2174 1.17998,-0.39607 1.45455,-0.39706 0.27457,-9.8e-4 0.87418,-0.19735 1.33247,-0.43636 0.45829,-0.23901 0.98193,-0.43267 1.16364,-0.43036 0.18171,0.002 1.18129,-0.24777 2.22129,-0.55576 2.30091,-0.6814 4.0828,-1.13839 5.81818,-1.49216 0.72,-0.14677 1.96364,-0.45656 2.76364,-0.68842 3.09256,-0.89628 4.49276,-1.19641 10.83636,-2.32271 1.24,-0.22016 2.84364,-0.54194 3.56364,-0.71507 1.21291,-0.29166 2.63012,-0.52581 7.56364,-1.24966 1.04,-0.15259 3.06909,-0.4618 4.50909,-0.68713 1.44,-0.22533 3.53454,-0.55133 4.65454,-0.72445 1.12,-0.17311 3.73818,-0.49946 5.81818,-0.7252 2.08,-0.22575 4.48696,-0.54883 5.3488,-0.71796 0.86184,-0.16913 2.4982,-0.30717 3.63636,-0.30676 1.13816,4.1e-4 3.6403,-0.19143 5.5603,-0.4263 3.79624,-0.4644 9.13496,-0.86318 17.74545,-1.3255 3.04,-0.16323 8.53818,-0.49405 12.21818,-0.73517 9.37427,-0.61422 48.38858,-0.60325 55.56364,0.0156 2.72,0.2346 6.51636,0.43759 8.43636,0.45107 1.92,0.0135 4.66909,0.13821 6.10909,0.27716 1.44,0.13896 4.58182,0.39803 6.98182,0.57573 2.4,0.17769 6,0.51328 8,0.74574 2,0.23247 4.68363,0.4242 5.96363,0.42608 1.28,0.002 3.11273,0.18423 4.07273,0.40523 0.96,0.22099 3.18546,0.49514 4.94546,0.60922 1.76,0.11408 4.05091,0.38724 5.09091,0.60702 1.04,0.21979 2.46126,0.40188 3.15837,0.40466 0.69711,0.003 2.13711,0.19403 3.2,0.42501 1.06289,0.23097 2.97981,0.55833 4.25981,0.72747 1.28,0.16913 3.17818,0.44487 4.21818,0.61275 1.72745,0.27885 2.75086,0.475 7.56363,1.44969 0.88,0.17822 2.58182,0.49946 3.78182,0.71387 1.2,0.21441 2.64,0.52279 3.2,0.6853 0.56,0.1625 1.67273,0.44185 2.47273,0.62077 3.06,0.68436 5.69417,1.40845 10.03636,2.75882 0.72,0.22391 1.89818,0.55968 2.61818,0.74616 0.72,0.18648 1.6797,0.5229 2.13267,0.74759 0.45297,0.22469 1.04206,0.41297 1.30909,0.4184 0.26703,0.005 1.00915,0.26281 1.64915,0.57195 0.64,0.30914 1.32283,0.56652 1.51741,0.57195 0.3486,0.01 1.40323,0.43192 3.75082,1.50153 0.65753,0.29959 1.33419,0.5447 1.5037,0.5447 0.16951,0 0.6788,0.18036 1.13177,0.40079 0.45297,0.22044 1.34721,0.62631 1.98721,0.90194 1.71098,0.73687 3.71961,1.65778 4.21818,1.93395 0.24,0.13293 1.02546,0.5095 1.74546,0.83681 0.72,0.32731 1.63636,0.78425 2.03636,1.01542 0.4,0.23118 1.08727,0.5681 1.52727,0.74871 0.44,0.18061 0.8,0.43369 0.8,0.56238 0,0.1287 0.36,0.3781 0.8,0.55422 0.44,0.17613 1.1459,0.54894 1.56867,0.82846 0.42276,0.27953 1.53549,0.95844 2.47273,1.50869 0.93723,0.55025 2.26692,1.40116 2.95487,1.89091 1.84355,1.31242 5.39585,3.89329 5.73101,4.16379 0.16,0.12913 1.6,1.26235 3.2,2.51826 3.65574,2.86957 11.79798,11.02893 14.83174,14.86294 1.26605,1.6 2.47747,3.10546 2.69205,3.34546 0.4201,0.46985 2.81745,3.761696 4.38807,6.025346 1.60316,2.31054 3.5709,5.41146 4.02207,6.33828 0.23366,0.48 1.12603,2.18182 1.98305,3.78182 1.99944,3.73282 2.67373,5.12122 4.73298,9.74545 0.24938,0.56 0.56599,1.21455 0.70358,1.45455 0.13759,0.24 0.29493,0.56727 0.34966,0.72727 0.10112,0.29567 0.49865,1.42001 1.10569,3.12727 0.1849,0.52 0.4961,1.33819 0.69157,1.81819 0.51652,1.26838 1.02086,2.727 1.45852,4.21818 0.21132,0.72 0.53617,1.76727 0.72188,2.32727 0.18572,0.56 0.46682,1.41091 0.62467,1.89091 0.25568,0.77749 1.00588,3.6051 1.96814,7.41818 0.1817,0.72 0.5287,2.09455 0.77112,3.05455 0.24242,0.96 0.57479,2.4 0.73861,3.2 0.16382,0.8 0.48412,2.12059 0.71177,2.93466 0.22765,0.81406 0.41392,1.8703 0.41392,2.34719 0,0.4769 0.1842,1.51267 0.40934,2.30171 0.22513,0.78904 0.49412,2.22007 0.59775,3.18007 0.10363,0.96 0.3701,2.72727 0.59217,3.92727 0.5065,2.73709 0.98324,6.52567 1.31785,10.47273 0.14242,1.68 0.45458,4.95273 0.69369,7.27273 1.23716,12.0037 1.614,32.61978 0.81889,44.8 -0.77658,11.89643 -0.98561,14.82944 -1.37872,19.34545 -0.22284,2.56 -0.54229,5.73454 -0.70989,7.05454 -0.16759,1.32 -0.42864,3.41455 -0.58011,4.65455 -0.64572,5.28642 -1.51914,10.88936 -2.12005,13.6 -0.17735,0.8 -0.48213,2.37091 -0.67728,3.49091 -0.47038,2.69956 -0.96817,5.17031 -1.43595,7.12727 -1.08319,4.53146 -1.93014,7.87304 -2.35948,9.30909 -0.26309,0.88 -0.70085,2.38546 -0.97281,3.34546 -0.57655,2.03518 -0.86809,2.76403 -2.22012,5.55023 -1.63979,3.3792 -3.7242,4.27911 -11.02983,4.76195 -6.17066,0.40783 -11.32553,0.84296 -15.70909,1.32602 -2.08,0.22922 -5.08254,0.49589 -6.67231,0.59262 -1.58977,0.0967 -4.27341,0.35998 -5.96364,0.58502 -1.69022,0.22504 -3.98267,0.41172 -5.09432,0.41484 -1.11165,0.003 -3.66438,0.19685 -5.67273,0.43051 -3.85293,0.44825 -8.06436,0.85689 -13.83336,1.34226 -1.92,0.16153 -5.25818,0.48644 -7.41818,0.722 -2.16,0.23557 -4.6733,0.42644 -5.5851,0.42416 -0.91181,-0.002 -3.13726,0.18336 -4.94546,0.41256 -1.80819,0.22919 -5.12035,0.50191 -7.36035,0.60605 -9.61647,0.44704 -9.41716,0.0703 -9.53919,18.03177 -0.12212,17.97406 0.29999,17.39443 -13.15172,18.05925 -52.94956,2.6169 -56.29191,2.08712 -56.71744,-8.98994 -0.82222,-21.40323 -0.49591,-20.93912 -14.8249,-21.08554 -15.18985,-0.15522 -14.70694,-0.81512 -16.17644,22.10526 -0.36014,5.61713 -1.02537,6.75837 -4.79031,8.21798 -1.37888,0.53457 -27.14764,0.92835 -36.8,0.56234 z m 34.98508,-6.14934 c 0.75733,-0.71169 0.70207,-0.27881 1.69809,-13.30182 1.12258,-14.67789 3.84348,-16.87273 20.91683,-16.87273 18.44361,0 19.69643,1.47214 20.54841,24.14545 0.20692,5.50678 0.2555,5.69213 1.66732,6.36208 1.76841,0.83917 39.21244,0.55831 51.51737,-0.38642 5.94353,-0.45632 5.49254,0.70868 5.72074,-14.77806 0.29581,-20.07584 0.57021,-20.45113 15.67343,-21.43571 1.36,-0.0887 4.43636,-0.3532 6.83636,-0.58786 5.82668,-0.56971 10.6689,-1.00735 16.29091,-1.47237 2.56,-0.21174 6.16,-0.52272 8,-0.69106 4.87449,-0.44596 12.93511,-1.15188 23.41818,-2.05089 2.08,-0.17837 5.81091,-0.518 8.29091,-0.75471 8.74876,-0.83508 10.65385,-1.01222 14.25455,-1.32543 5.83771,-0.50778 6.58215,-1.1484 8.4171,-7.2432 0.36128,-1.2 0.79697,-2.64 0.96819,-3.2 0.47935,-1.56774 1.23361,-4.86894 3.15721,-13.81818 1.04105,-4.84333 1.11298,-5.22914 1.43568,-7.70088 0.17697,-1.35548 0.37965,-2.55816 0.45039,-2.67263 0.0707,-0.11446 0.25648,-1.29634 0.41274,-2.62639 0.15627,-1.33006 0.47524,-3.79283 0.70883,-5.47283 3.58338,-25.77248 3.95297,-66.57045 0.77065,-85.06864 -0.34536,-2.00752 -0.76311,-4.6544 -1.335,-8.45863 -0.3513,-2.33684 -0.72547,-4.36026 -2.01733,-10.90909 -0.45092,-2.28585 -0.94837,-4.35205 -1.47081,-6.10909 -0.21409,-0.72 -0.47681,-1.76727 -0.58382,-2.32727 -0.10701,-0.56 -0.36419,-1.54182 -0.57149,-2.18182 -0.20731,-0.64 -0.58561,-1.88364 -0.84068,-2.76364 -0.88097,-3.03937 -1.70381,-5.6763 -2.08786,-6.6909 -1.80202,-4.76058 -2.55526,-6.66277 -2.91804,-7.36903 -0.23267,-0.45297 -0.42304,-0.96227 -0.42304,-1.13178 0,-0.50926 -5.02284,-10.86694 -6.05519,-12.4865 -0.41177,-0.64599 -1.20011,-1.95337 -3.98117,-6.60235 -0.85816,-1.43456 -5.93237,-8.247026 -6.53522,-8.773976 -0.0915,-0.08 -0.8645,-0.99636 -1.71772,-2.03636 -2.60942,-3.18065 -8.00233,-8.55777 -11.09251,-11.06004 -0.88,-0.71258 -1.66546,-1.37622 -1.74546,-1.47476 -0.82895,-1.02104 -12.01807,-8.94049 -13.67272,-9.6773 -0.24,-0.10687 -0.82909,-0.44234 -1.30909,-0.7455 -2.68861,-1.69806 -7.02618,-3.87027 -13.38182,-6.70146 -0.64,-0.28509 -1.6416,-0.73207 -2.22579,-0.99328 -0.58418,-0.26121 -1.26372,-0.47493 -1.5101,-0.47493 -0.24638,0 -0.52264,-0.12084 -0.61392,-0.26853 -0.0913,-0.14769 -0.58938,-0.36153 -1.10691,-0.47519 -0.51752,-0.11367 -1.3342,-0.37436 -1.81484,-0.57932 -1.04509,-0.44565 -6.40691,-2.15707 -9.45571,-3.01814 -1.2,-0.33892 -2.83637,-0.80109 -3.63637,-1.02706 -0.8,-0.22596 -2.76363,-0.68829 -4.36363,-1.02739 -1.6,-0.3391 -3.30182,-0.7369 -3.78182,-0.884 -0.97993,-0.3003 -4.42778,-1.01394 -7.70909,-1.59563 -1.2,-0.21273 -2.83637,-0.51947 -3.63637,-0.68164 -3.76031,-0.76227 -7.22772,-1.28252 -14.6909,-2.20422 -1.84,-0.22724 -4.19637,-0.55091 -5.23637,-0.71926 -2.79507,-0.45246 -9.27716,-1.18471 -13.09091,-1.47881 -1.84,-0.1419 -4.78545,-0.39701 -6.54545,-0.56692 -5.93848,-0.57331 -11.31103,-0.91353 -18.76364,-1.18822 -4.08,-0.15038 -10.2495,-0.40709 -13.71001,-0.57046 -8.17482,-0.38592 -28.5954,-0.38695 -38.21726,-0.002 -4.16,0.16647 -10.64,0.42518 -14.4,0.57492 -7.10229,0.28283 -13.18288,0.6641 -18.90909,1.18566 -1.84,0.16759 -4.91636,0.42474 -6.83636,0.57144 -1.92,0.1467 -4.49534,0.40675 -5.72297,0.57788 -1.22764,0.17114 -3.45309,0.42748 -4.94546,0.56964 -1.49236,0.14217 -4.67703,0.53317 -7.07703,0.86889 -2.4,0.33572 -5.34545,0.73338 -6.54545,0.88369 -3.81997,0.47849 -14.21557,2.37876 -19.05454,3.48308 -0.8,0.18257 -2.30546,0.50816 -3.34546,0.72352 -2.48392,0.51437 -5.18108,1.17171 -7.78182,1.89654 -6.48613,1.8077 -5.84348,1.62143 -10.4,3.01445 -2.19592,0.67134 -4.01417,1.32598 -4.57787,1.64823 -0.27783,0.15882 -0.6445,0.28877 -0.81483,0.28877 -0.25188,0 -3.09657,1.13416 -6.53457,2.60529 -4.09435,1.75199 -11.71408,5.72073 -14.83636,7.72752 -0.8,0.51418 -2.37091,1.52512 -3.49091,2.24652 -6.22418,4.00904 -15.84601,12.44866 -20.45572,17.94238 -0.74935,0.89306 -1.50805,1.75465 -1.686,1.91465 -0.64298,0.57814 -5.85726,7.673696 -7.58914,10.327266 -4.15194,6.36154 -10.35654,18.92494 -11.78088,23.85454 -0.16181,0.56 -0.40464,1.15425 -0.53963,1.32055 -0.13498,0.1663 -0.37576,0.82084 -0.53506,1.45454 -0.38422,1.5285 -1.17696,3.94431 -1.488,4.53456 -0.13717,0.2603 -0.34104,0.9803 -0.45304,1.6 -0.11201,0.61969 -0.34024,1.38854 -0.5072,1.70854 -0.16695,0.32 -0.39722,1.04 -0.5117,1.6 -0.11448,0.56 -0.56421,2.32727 -0.9994,3.92727 -0.43519,1.6 -0.97022,3.82545 -1.18894,4.94545 -0.58439,2.99241 -0.91583,4.68626 -1.39461,7.12728 -1.03732,5.28865 -1.77531,9.92559 -2.22238,13.96363 -0.15057,1.36 -0.4684,4.10909 -0.70628,6.10909 -1.79273,15.07204 -2.30746,44.76035 -1.04154,60.07273 0.15873,1.92 0.36185,4.99636 0.45137,6.83636 0.0895,1.84 0.35071,4.98182 0.58043,6.98182 0.22971,2 0.551,5.01091 0.71396,6.69091 0.55495,5.72094 0.86224,8.28841 1.28829,10.76363 0.23409,1.36 0.70268,4.17455 1.04132,6.25455 0.33863,2.08 0.73355,4.24 0.8776,4.8 0.14405,0.56 0.34424,1.73818 0.44487,2.61818 0.10062,0.88 0.36281,2.25454 0.58264,3.05454 0.21982,0.8 0.68188,2.50182 1.0268,3.78182 2.66364,9.8848 0.41748,9.06268 29.36497,10.74792 3.92,0.22821 8.63272,0.55035 10.47272,0.71586 3.26643,0.29381 8.61439,0.63199 18.90909,1.19569 2.8,0.15332 6.79273,0.41501 8.87273,0.58152 2.08,0.16652 6.53091,0.42939 9.89091,0.58417 3.36,0.15477 7.35273,0.40519 8.87273,0.5565 1.52,0.15131 4.92363,0.35438 7.56363,0.45128 2.64,0.0969 6.10909,0.30023 7.70909,0.45185 1.6,0.15163 5.78909,0.41027 9.30909,0.57476 15.56223,0.72723 16.3355,1.31067 15.82314,11.9387 -0.82774,17.17004 -0.33114,23.11971 2.02686,24.28334 3.36483,1.66048 61.56835,2.6496 63.24417,1.07478 z m -99.8578,-82.43212 c -3.56706,-0.35952 -9.61424,-1.45171 -10.53101,-1.90202 -0.43205,-0.21223 -1.00136,-0.38586 -1.26513,-0.38586 -0.26376,0 -0.89208,-0.18753 -1.39626,-0.41672 -0.50418,-0.2292 -2.18381,-0.9481 -3.73251,-1.59757 -7.72565,-3.23985 -14.73187,-8.66125 -20.32981,-15.73117 -3.03228,-3.82962 -6.84205,-10.93753 -8.40186,-15.67541 -1.16809,-3.54803 -1.47654,-4.7127 -1.75474,-6.62563 -0.15916,-1.09443 -0.44612,-2.5135 -0.6377,-3.1535 -0.57631,-1.92526 -0.47921,-14.58093 0.13391,-17.45455 0.27311,-1.28 0.62026,-2.98181 0.77145,-3.78181 0.40547,-2.14539 1.05252,-4.44631 1.75887,-6.25455 0.34375,-0.88 0.81653,-2.1193 1.05062,-2.75399 0.57095,-1.54809 2.99497,-6.51956 3.6217,-7.42783 0.27601,-0.4 1.00109,-1.51272 1.6113,-2.47272 3.7658,-5.92446 9.97772,-12.05847 15.50973,-15.3152 15.34844,-9.03573 31.75277,-10.42682 48.90053,-4.14676 3.62177,1.32641 9.56254,4.95762 13.5168,8.26196 3.05053,2.54913 8.51305,9.09258 10.44269,12.50909 0.58739,1.04 1.19188,2.08727 1.3433,2.32727 1.95199,3.09375 5.12139,11.91641 5.85226,16.29091 0.17376,1.04 0.42715,2.48 0.56309,3.2 0.42292,2.2399 0.33137,13.4446 -0.12905,15.79408 -0.226,1.15325 -0.49329,2.81683 -0.59398,3.69683 -0.10069,0.88 -0.35897,2.12363 -0.57395,2.76363 -0.21497,0.64 -0.68134,2.14546 -1.03637,3.34546 -0.35503,1.2 -0.82821,2.59433 -1.05151,3.09851 -0.22331,0.50418 -0.40601,1.06316 -0.40601,1.24219 0,0.29146 -1.95576,4.45248 -2.60871,5.55021 -0.14276,0.24 -0.75342,1.28727 -1.35704,2.32727 -3.78936,6.5289 -10.66916,13.38939 -17.70993,17.66022 -1.37649,0.83496 -7.11574,3.56206 -7.88327,3.74586 -0.46258,0.11078 -0.97196,0.29358 -1.13196,0.40623 -1.28851,0.90717 -7.58325,2.27363 -12.79088,2.77665 -4.77137,0.46087 -6.03605,0.4737 -9.75457,0.0989 z m 9.45454,-6.79877 c 4.29764,-0.47685 10.2547,-1.82141 11.96171,-2.69987 0.30106,-0.15492 1.69759,-0.85407 3.1034,-1.55365 4.18486,-2.08253 4.89755,-2.5229 8.21026,-5.07315 6.09728,-4.69392 11.54457,-12.03957 14.49338,-19.54426 1.40633,-3.57911 2.5325,-7.20203 2.52638,-8.1274 -0.002,-0.35007 0.20372,-1.52826 0.45787,-2.61818 0.65394,-2.80443 0.67779,-13.42126 0.0362,-16.09078 -0.24997,-1.04 -0.52796,-2.41455 -0.61775,-3.05455 -0.16796,-1.19705 -1.98034,-7.00499 -2.4721,-7.92205 -0.15169,-0.28287 -0.55843,-1.16886 -0.90387,-1.96886 -2.50046,-5.79078 -7.20651,-12.00684 -12.35906,-16.32465 -1.72191,-1.44295 -4.67823,-3.60262 -4.93155,-3.60262 -0.0716,0 -0.69312,-0.37307 -1.38114,-0.82905 -1.82892,-1.21209 -5.50933,-2.86267 -8.08731,-3.62697 -5.55934,-1.6482 -9.83657,-2.32916 -14.69091,-2.33886 -5.69305,-0.0114 -13.18854,1.43448 -17.6,3.39499 -11.01095,4.89341 -19.41356,12.76729 -23.96226,22.45444 -0.60104,1.28 -1.28086,2.67474 -1.51072,3.09943 -0.22986,0.42468 -0.41793,0.92854 -0.41793,1.11967 0,0.19113 -0.18497,0.76002 -0.41105,1.2642 -0.42507,0.94794 -1.17024,3.49304 -2.05704,7.02579 -1.02063,4.06584 -0.92466,15.64338 0.16518,19.92727 1.7679,6.94917 2.35642,8.54684 4.87574,13.23636 8.84223,16.45915 26.92205,25.92213 45.57262,23.85275 z m 186.18182,4.88204 c -5.16139,-0.82355 -10.92123,-2.57619 -14.69091,-4.47022 -6.49961,-3.26565 -10.44442,-6.17038 -14.94708,-11.00615 -1.92584,-2.06833 -2.0412,-2.20179 -2.67644,-3.09663 -1.6817,-2.3689 -2.65055,-3.80443 -2.83339,-4.19815 -0.11145,-0.24 -0.45875,-0.85838 -0.77178,-1.37418 -1.52827,-2.51825 -4.07697,-8.15116 -4.07941,-9.01595 -5.4e-4,-0.19457 -0.18631,-0.78366 -0.41281,-1.30909 -4.82117,-11.18392 -2.67408,-29.47126 5.1159,-43.57351 2.2865,-4.13926 7.89167,-10.35205 12.02319,-13.32653 0.16,-0.11519 0.95619,-0.6934 1.76932,-1.2849 4.10575,-2.98673 12.71608,-6.56387 18.0125,-7.48327 0.96,-0.16664 2.33454,-0.42871 3.05454,-0.58238 1.81519,-0.38741 12.6679,-0.37516 14.57848,0.0164 0.86184,0.17665 2.48334,0.49408 3.60334,0.7054 7.29833,1.37703 14.74021,4.94302 20.9274,10.02796 4.84165,3.97912 9.95877,10.39766 12.52392,15.70909 1.21855,2.52315 2.01784,4.4626 2.75748,6.69091 1.15105,3.4678 1.46987,4.68165 1.75183,6.66969 0.16128,1.13718 0.4211,2.62171 0.57737,3.29896 0.46339,2.00816 0.36008,13.40136 -0.14305,15.77669 -0.23722,1.11995 -0.43132,2.30881 -0.43132,2.64192 0,0.82472 -1.84323,7.0314 -2.75755,9.28547 -0.91004,2.2435 -2.58677,5.8068 -3.13851,6.66978 -4.53725,7.09679 -8.90613,11.81339 -14.16632,15.29385 -0.36272,0.24 -0.93889,0.64105 -1.28037,0.89122 -0.53041,0.38857 -2.6746,1.55061 -4.23632,2.29587 -2.03615,0.97165 -2.60179,1.21502 -3.36638,1.4484 -0.48,0.14651 -1.59273,0.54869 -2.47273,0.89373 -6.37694,2.50034 -17.06399,3.5587 -24.2909,2.40557 z m 12.8,-6.77143 c 7.0795,-0.9326 11.63626,-2.48331 17.30909,-5.89046 4.06246,-2.43995 11.51221,-9.78362 12.91128,-12.72744 0.11406,-0.24 0.51997,-0.96 0.90202,-1.6 5.89344,-9.87246 7.6241,-22.35985 4.75751,-34.32727 -0.73586,-3.07207 -0.87463,-3.55294 -1.27194,-4.40761 -0.23438,-0.50418 -0.42615,-1.07307 -0.42615,-1.2642 0,-0.19113 -0.19046,-0.69499 -0.42325,-1.11967 -0.23279,-0.42469 -0.7677,-1.49216 -1.18868,-2.37216 -2.96353,-6.19482 -7.83419,-11.94739 -13.32779,-15.74099 -3.80287,-2.62607 -4.26963,-2.91255 -5.9122,-3.62881 -0.93144,-0.40617 -1.91681,-0.85888 -2.18971,-1.00602 -0.95542,-0.51514 -7.57327,-2.606 -8.24836,-2.606 -0.37489,0 -1.43551,-0.19636 -2.35693,-0.43636 -2.25835,-0.58823 -10.3258,-0.59191 -12.75308,-0.006 -0.96,0.2318 -2.0834,0.42612 -2.49646,0.43182 -3.4538,0.0477 -12.86784,4.35605 -17.72172,8.11044 -13.23008,10.23327 -19.98911,31.18425 -15.10741,46.82851 0.49241,1.57802 1.41546,4.14643 1.84873,5.14414 0.20844,0.48 0.68506,1.59272 1.05914,2.47272 0.37408,0.88 0.82488,1.79637 1.00178,2.03637 0.17689,0.24 0.46168,0.76363 0.63285,1.16363 1.49412,3.49152 8.67433,11.03519 13.76491,14.4617 2.75637,1.85533 10.49461,5.32012 11.88192,5.32012 0.29719,0 0.95404,0.14421 1.45966,0.32047 3.66582,1.27792 10.0304,1.61543 15.89479,0.84289 z"
       id="path1" />
    <path
       style="fill:#ffffff;stroke-width:0.903009"
       d="m 252.08994,345.47391 c -10.26401,-0.71536 -10.08353,-0.37999 -10.08353,-18.73643 0,-14.60552 -0.0151,-14.71615 -2.20981,-16.15416 -1.76205,-1.15454 -9.3097,-1.8898 -37.24912,-3.62869 -85.22038,-5.30392 -82.45564,-5.05945 -84.48999,-7.47082 -2.64617,-3.13657 -5.95188,-19.66169 -8.427,-42.12625 -1.91225,-17.35591 -2.19425,-58.82788 -0.50349,-74.04673 2.90475,-26.14622 8.06691,-46.14613 16.02128,-62.07166 11.0343,-22.091903 27.11791,-38.279062 48.68095,-48.994389 20.72097,-10.296874 45.29729,-15.949843 87.05881,-20.024996 19.84003,-1.936021 85.13948,-2.233431 103.47609,-0.471289 60.61085,5.824686 88.00383,14.558233 112.90934,35.99823 33.86965,29.156814 48.14225,86.524924 40.54895,162.984794 -2.06607,20.80401 -6.82444,44.51943 -9.86545,49.16883 -1.54885,2.36804 0.14766,2.14785 -51.32548,6.66133 -22.75787,1.99555 -42.09311,4.01101 -42.96719,4.47879 -3.62421,1.93963 -4.07961,3.6516 -5.02437,18.88818 l -0.93137,15.02079 -4.96655,0.58795 c -2.7316,0.32337 -15.21269,0.62814 -27.73576,0.67725 -20.82578,0.0817 -22.83876,-0.0456 -23.5842,-1.49096 -0.44824,-0.86914 -1.03309,-5.73383 -1.29964,-10.81041 -0.88167,-16.79158 -3.17583,-18.6533 -22.37149,-18.1545 -16.66379,0.433 -18.08467,1.80687 -19.68035,19.02909 -0.49081,5.29734 -1.15445,10.05555 -1.47474,10.57381 -0.61991,1.00303 -40.54521,1.08524 -54.50589,0.11224 z m -29.43832,-82.30895 c 17.34541,-3.12445 32.95361,-16.95249 39.33885,-34.85212 2.69288,-7.54891 3.36987,-25.59761 1.26459,-33.7144 -7.21769,-27.82751 -32.78342,-44.37515 -60.84539,-39.38272 -19.67201,3.4998 -34.66265,16.59501 -41.16257,35.95792 -6.89605,20.54299 -2.07592,42.47713 12.5698,57.19917 12.89174,12.95892 30.09071,18.16854 48.83472,14.79215 z m 200.44413,-2.21488 c 17.67275,-4.51187 30.97435,-18.03863 35.14751,-35.74244 1.75269,-7.43548 1.76572,-20.65374 0.0269,-27.3294 -4.24597,-16.30139 -15.61696,-28.98704 -31.13332,-34.73281 -7.19988,-2.66614 -20.51966,-3.6064 -28.27656,-1.99607 -12.0978,2.51149 -25.95127,12.08921 -31.66396,21.89118 -6.52974,11.20385 -9.43477,29.11209 -6.5459,40.35257 4.73799,18.43535 17.7882,32.19637 35.319,37.24272 6.89413,1.98452 19.9897,2.13623 27.1263,0.31425 z"
       id="path2" />
    <path
       style="fill:#ffffff;stroke-width:0.903009"
       d="m 252.08994,345.47391 c -10.23647,-0.71345 -10.08353,-0.43578 -10.08353,-18.30574 0,-17.09125 -0.16371,-17.41717 -9.17535,-18.26543 -3.14836,-0.29635 -28.88648,-1.96697 -57.19581,-3.7125 -28.30933,-1.74553 -52.4874,-3.42518 -53.72904,-3.73256 -4.99986,-1.23778 -5.8055,-3.09908 -9.10383,-21.03299 -5.78076,-31.4316 -6.68536,-78.01035 -2.12257,-109.29378 5.00702,-34.32925 16.72979,-60.84556 34.76137,-78.628434 9.10193,-8.976392 17.31791,-14.778372 29.29106,-20.684831 20.7233,-10.222983 47.34235,-16.080125 91.20391,-20.06812 16.8858,-1.535296 81.59538,-1.53208 98.42798,0.0049 53.72974,4.906021 82.54923,13.04749 104.92359,29.640783 10.38204,7.699545 13.63847,10.861981 21.23765,20.624702 24.40973,31.35933 33.75637,82.6177 27.25456,149.46811 -2.10256,21.61818 -7.56936,47.03378 -10.67035,49.60737 -0.81252,0.67433 -18.44679,2.60588 -46.74087,5.11969 -49.3892,4.38804 -49.20437,4.35176 -50.58309,9.92998 -0.35578,1.43942 -0.96866,8.50926 -1.36196,15.71076 l -0.7151,13.09363 -4.96655,0.58795 c -2.7316,0.32337 -15.21269,0.62814 -27.73576,0.67725 -20.82706,0.0817 -22.83841,-0.0455 -23.5806,-1.49096 -0.44627,-0.86914 -1.05112,-5.6438 -1.34411,-10.61035 -1.01324,-17.17586 -2.0182,-18.06018 -20.524,-18.06018 -18.67405,0 -19.75322,0.94061 -21.45595,18.70121 -0.50993,5.31912 -1.18838,10.09378 -1.50765,10.61035 -0.618,0.99996 -40.57489,1.08001 -54.504,0.1092 z m -29.43832,-82.32944 c 11.4273,-2.10211 23.74264,-9.9266 31.26478,-19.86394 12.75409,-16.84915 14.38903,-41.3775 4.11767,-61.77572 -3.4947,-6.94024 -14.67201,-18.11576 -21.44571,-21.4423 -20.89558,-10.26174 -46.06012,-6.35334 -61.89294,9.61282 -17.56567,17.71359 -21.52837,43.75383 -10.04513,66.01002 10.86158,21.05134 33.80027,31.91104 58.00133,27.45912 z m 200.44413,-2.19104 c 17.46595,-4.44821 30.53803,-17.85496 35.16774,-36.06816 1.75979,-6.92295 1.75383,-20.29936 -0.0121,-27.07907 -3.20238,-12.29473 -12.40091,-24.63642 -23.07424,-30.95873 -9.81319,-5.81282 -26.72337,-8.18264 -37.64404,-5.27551 -17.90046,4.76519 -30.47201,16.99504 -35.8057,34.8325 -2.35129,7.8634 -2.83717,20.14932 -1.06879,27.02503 4.70773,18.30434 17.88659,32.19068 35.31079,37.20634 6.88696,1.98245 19.98698,2.13583 27.1263,0.3176 z"
       id="path3" />
    <path
       style="fill:#ffffff;stroke-width:0.903009"
       d="m 252.08994,345.47391 c -10.23647,-0.71345 -10.08353,-0.43578 -10.08353,-18.30574 0,-12.83649 -0.17348,-14.44904 -1.72101,-15.99656 -2.09979,-2.0998 -0.48166,-1.95132 -65.20381,-5.98275 -27.62053,-1.72043 -51.47306,-3.37884 -53.00562,-3.68535 -3.80733,-0.76147 -5.19971,-2.58558 -6.81543,-8.92859 -7.7282,-30.3397 -9.81517,-85.55976 -4.58796,-121.39533 8.44987,-57.9288 36.05993,-93.120063 84.30402,-107.452286 31.5776,-9.380989 65.74307,-13.111248 120.17354,-13.120808 76.96301,-0.01352 123.19803,8.777473 151.68162,28.840296 23.00614,16.204701 37.91578,39.043548 46.00748,70.475028 9.10202,35.35599 9.28915,90.05419 0.44942,131.36548 -2.65319,12.39935 -4.5547,18.45997 -6.22734,19.84813 -0.71662,0.59475 -19.79924,2.69568 -45.52646,5.01232 -24.36098,2.19361 -45.29038,4.23878 -46.50977,4.54483 -4.69267,1.17779 -5.26591,2.91107 -6.32698,19.13064 l -0.98955,15.12622 -4.96655,0.58795 c -2.7316,0.32337 -15.21269,0.62814 -27.73576,0.67725 -20.82706,0.0817 -22.83841,-0.0455 -23.5806,-1.49096 -0.44627,-0.86914 -1.05341,-5.75038 -1.34919,-10.8472 -0.94919,-16.35637 -2.67183,-17.82333 -20.92968,-17.82333 -17.88969,0 -19.2723,1.26039 -21.07042,19.208 -0.50671,5.0576 -1.17815,9.61125 -1.49209,10.11922 -0.60822,0.98412 -40.7282,1.05299 -54.49433,0.0935 z m -29.43832,-82.31515 c 9.48816,-1.72009 18.01855,-6.52402 26.16608,-14.73553 11.32668,-11.41562 15.72426,-22.4197 15.75059,-39.41268 0.0246,-15.86029 -4.9964,-28.43305 -15.68059,-39.26492 -10.4878,-10.63278 -21.85487,-15.20665 -37.58359,-15.12283 -15.18726,0.0809 -29.00851,6.19143 -38.7656,17.13863 -25.73723,28.87652 -15.23087,75.51617 20.03277,88.92913 9.01809,3.43014 19.86483,4.32016 30.08034,2.4682 z m 200.28975,-2.19628 c 17.3906,-4.52967 30.74489,-18.17174 35.31617,-36.07721 1.74798,-6.84673 1.74137,-19.13362 -0.0143,-26.58169 -3.8116,-16.17 -16.47372,-30.14886 -32.02301,-35.3531 -23.69611,-7.93093 -50.07839,2.47747 -60.48673,23.86335 -5.86916,12.05929 -7.78401,26.22686 -4.99303,36.94217 4.67631,17.95359 19.42633,33.06267 36.25304,37.13553 7.08248,1.7143 19.50817,1.74828 25.94784,0.071 z"
       id="path4" />
  </g>
</svg>
