<?xml version="1.0" encoding="UTF-8" standalone="no"?>
<!-- Created with Inkscape (http://www.inkscape.org/) -->

<svg
   version="1.1"
   id="svg1"
   width="714"
   height="136"
   viewBox="0 0 714 136"
   sodipodi:docname="player_tuck.svg"
   inkscape:version="1.4.4 (dcaf3e7, 2026-05-05)"
   xmlns:inkscape="http://www.inkscape.org/namespaces/inkscape"
   xmlns:sodipodi="http://sodipodi.sourceforge.net/DTD/sodipodi-0.dtd"
   xmlns="http://www.w3.org/2000/svg"
   xmlns:svg="http://www.w3.org/2000/svg">
  <defs
     id="defs1" />
  <sodipodi:namedview
     id="namedview1"
     pagecolor="#ffffff"
     bordercolor="#000000"
     borderopacity="0.25"
     inkscape:showpageshadow="2"
     inkscape:pageopacity="0.0"
     inkscape:pagecheckerboard="0"
     inkscape:deskcolor="#d1d1d1"
     inkscape:zoom="1.7588539"
     inkscape:cx="374.96008"
     inkscape:cy="103.1922"
     inkscape:window-width="1920"
     inkscape:window-height="1057"
     inkscape:window-x="-8"
     inkscape:window-y="-8"
     inkscape:window-maximized="1"
     inkscape:current-layer="g1" />
  <g
     inkscape:groupmode="layer"
     inkscape:label="Image"
     id="g1">
    <path
       style="fill:#ffffff;stroke-width:0.568552"
       d="m 345.67966,128.40131 c -1.87622,-0.0884 -9.93544,-0.43481 -17.90939,-0.76982 -81.78896,-3.43615 -118.44696,-16.92854 -145.64065,-53.604652 -8.88243,-11.97974 -19.23945,-32.72723 -19.23945,-38.54106 0,-2.72311 -1.80284,-2.70648 52.87535,-0.4876 35.25733,1.43077 61.75886,2.79577 64.24638,3.30909 l 1.98993,0.41064 v 15.89128 c 0,14.05873 0.11467,16.10096 0.99437,17.70967 2.13942,3.91236 6.50758,5.81502 16.03109,6.98273 7.24932,0.88887 32.6987,2.36254 42.67251,2.47099 8.09133,0.088 9.34415,-0.0268 11.33435,-1.03818 3.40795,-1.73192 4.25805,-3.35375 5.43862,-10.37596 1.43685,-8.54664 2.53522,-10.49288 6.96663,-12.34444 3.6929,-1.543 16.67823,-0.76633 19.64066,1.17472 1.96235,1.28579 2.78301,3.75365 3.7766,11.35685 0.95071,7.27523 1.70279,8.97334 4.63251,10.45966 3.52566,1.78866 49.62842,1.20223 57.6569,-0.73339 9.22913,-2.2251 10.10314,-4.16686 10.79602,-23.98518 0.26239,-7.50489 0.64475,-14.06784 0.8497,-14.58433 0.20496,-0.5165 1.18643,-1.08255 2.18105,-1.25791 2.67274,-0.47121 22.2963,-2.33408 51.841,-4.92127 14.38436,-1.25962 27.88037,-2.44873 29.99112,-2.64246 2.87318,-0.2637 3.83773,-0.17417 3.83773,0.35624 0,1.84472 -3.71426,11.44767 -6.83796,17.67906 -14.1899,28.30709 -33.79017,49.539492 -55.99905,60.662182 -21.18944,10.61212 -45.7905,14.72073 -99.48461,16.61489 -14.98724,0.5287 -33.88146,0.62098 -42.64141,0.20825 z"
       id="path1" />
  </g>
</svg>
